<?xml version="1.0" encoding="UTF-8"?>
<svg width="18px" height="18px" viewBox="0 0 18 18" version="1.1" xmlns="http://www.w3.org/2000/svg" xmlns:xlink="http://www.w3.org/1999/xlink">
    <!-- Generator: Sketch 59.1 (86144) - https://sketch.com -->
    <title>1备份 2</title>
    <desc>Created with Sketch.</desc>
    <g id="页面-1" stroke="none" stroke-width="1" fill="none" fill-rule="evenodd">
        <path d="M9.22037501,7.80215718 C8.96958637,7.9071791 9.03632851,7.92432554 8.73093266,7.79572727 L0.556031906,4.19711901 C0.489289767,4.13067657 0.450862475,4.03851447 0.446728218,3.94206577 C0.444795008,3.84561707 0.477154833,3.75131167 0.541874482,3.68058262 L8.51250385,0.0862609732 C8.69250537,-0.00375781589 8.87857436,-0.0530538194 9.20824008,0.0905475822 L17.3285336,3.61628349 C17.4680854,3.75988489 17.4741528,3.99350508 17.3447135,4.13496318 L9.22037501,7.80215718 Z M9.46711868,17.6013454 C9.46711868,17.8199624 9.63498527,17.9978567 9.84330164,17.9978567 L17.6258395,13.6983879 C17.9292129,13.4969172 18,13.1411287 18,12.6245923 L18,5.36950657 C18,5.26448465 17.9615727,5.16374934 17.8907856,5.08873368 C17.8199985,5.01371802 17.7249415,4.97299524 17.6258395,4.97299524 L9.84127915,8.43443201 C9.46509619,8.58874993 9.46509619,8.79236386 9.46509619,9.01098092 L9.46711868,17.6013454 Z M8.15856826,8.43443201 L0.37603038,4.97299524 C0.276928416,4.97299524 0.181871431,5.01371802 0.111084314,5.08873368 C0.0402971969,5.16374934 0.00186990482,5.26448465 0.00186990482,5.36950657 L0.00186990482,13.7091044 C0.00186990482,13.7969799 -0.0486923215,13.9255781 0.37603038,14.1056157 L8.15856826,18 C8.36486214,18 8.53272874,17.8221057 8.53272874,17.6034887 L8.53272874,9.01098092 C8.53272874,8.79236386 8.53272874,8.58874993 8.15856826,8.43443201 Z M5.61832201,10.4877177 C4.62123491,10.0269073 3.62617029,9.56609679 2.63110568,9.10099971 C2.46728406,9.02598405 2.38436201,8.99383448 2.38436201,8.85666299 L2.38436201,7.93932867 C2.38031703,7.81930362 2.44908166,7.66069908 2.58054345,7.7142817 L5.64865934,9.14172249 C5.9338303,9.2853239 5.84686327,9.30247033 5.85899821,9.84901298 L5.85899821,10.3033935 C5.8610207,10.3934123 5.78012113,10.5605901 5.61832201,10.4877177 Z" id="1备份-2" fill="#0062D0" fill-rule="nonzero"></path>
    </g>
</svg>