<?xml version="1.0" encoding="UTF-8"?>
<svg width="301px" height="40px" viewBox="0 0 301 40" version="1.1" xmlns="http://www.w3.org/2000/svg" xmlns:xlink="http://www.w3.org/1999/xlink">
    <!-- Generator: Sketch 60 (88103) - https://sketch.com -->
    <!-- <title>银联logo</title> -->
    <!-- <desc>Created with Sketch.</desc> -->
    <g id="页面-1" stroke="none" stroke-width="1" fill="none" fill-rule="evenodd">
        <g id="画板" transform="translate(-360.000000, -12.000000)">
            <g id="银联logo" transform="translate(360.000000, 12.000000)">
                <rect id="矩形备份" fill="#D8D8D8" x="170" y="4" width="1" height="33"></rect>
                <g id="0.全局/5.Logo/银联logo/常规备份">
                    <g id="编组" transform="translate(-0.000115, 0.000000)">
                        <g>
                            <path d="M11.4071526,-4.26325641e-14 L25.9414543,-4.26325641e-14 C27.969621,-4.26325641e-14 29.2309527,1.65609756 28.7574052,3.69560976 L21.9903536,32.7858537 C21.5143702,34.8190244 19.4818188,36.4741463 17.4517033,36.4741463 L2.91691443,36.4741463 C0.888260518,36.4741463 -0.374045509,34.8190244 0.0995019472,32.7858537 L6.87045106,3.69560976 C7.34448571,1.65609756 9.37362681,-4.26325641e-14 11.4071526,-4.26325641e-14" id="Fill-1" fill="#DE3232"></path>
                            <path d="M24.7318134,-4.26325641e-14 L41.4457975,-4.26325641e-14 C43.4739642,-4.26325641e-14 42.5604853,1.65609756 42.0835276,3.69560976 L35.3169632,32.7858537 C34.8419541,34.8190244 34.9905467,36.4741463 32.9579953,36.4741463 L16.2440111,36.4741463 C14.2114597,36.4741463 12.955,34.8190244 13.430009,32.7858537 L20.1951118,3.69560976 C20.6740184,1.65609756 22.7012107,-4.26325641e-14 24.7318134,-4.26325641e-14" id="Fill-4" fill="#004889"></path>
                            <path d="M40.7847798,-4.26325641e-14 L55.3181071,-4.26325641e-14 C57.349197,-4.26325641e-14 58.6110158,1.65609756 58.1340581,3.69560976 L51.3674936,32.7858537 C50.8929718,34.8190244 48.8604204,36.4741463 46.8268946,36.4741463 L32.2989263,36.4741463 C30.2644262,36.4741463 29.0035817,34.8190244 29.482001,32.7858537 L36.2466167,3.69560976 C36.7216257,1.65609756 38.7527156,-4.26325641e-14 40.7847798,-4.26325641e-14" id="Fill-6" fill="#007F89"></path>
                            <path d="M43.1641122,21.4796098 L41.3922067,27.3493659 L41.8691645,27.3493659 L41.5003626,28.5625366 L41.0253536,28.5625366 L40.9142746,28.9386341 L39.2286016,28.9386341 L39.3440653,28.5625366 L35.9162053,28.5625366 L36.2625965,27.4400976 L36.6080133,27.4400976 L38.4047654,21.4796098 L38.7638235,20.2761951 L40.4831126,20.2761951 L40.3038271,20.8830244 C40.3038271,20.8830244 40.7617845,20.5542439 41.1958697,20.4410732 C41.6284933,20.326439 44.1209509,20.284 44.1209509,20.284 L43.7531234,21.4796098 L43.1641122,21.4796098 Z M40.1347726,21.4796098 L39.6787639,22.979122 C39.6787639,22.979122 40.1888506,22.7498537 40.4680097,22.6722927 C40.750092,22.6000976 41.1715102,22.5713171 41.1715102,22.5713171 L41.5003626,21.4796098 L40.1347726,21.4796098 Z M39.4527084,23.7259512 L38.982084,25.2849756 C38.982084,25.2849756 39.503376,25.0171707 39.7830223,24.9352195 C40.0631559,24.8683902 40.4928563,24.8171707 40.4928563,24.8171707 L40.8241447,23.7259512 L39.4527084,23.7259512 Z M38.3560465,27.3644878 L39.72797,27.3644878 L40.1235673,26.0459512 L38.7535925,26.0459512 L38.3560465,27.3644878 Z" id="Fill-8" fill="#FEFEFE"></path>
                            <path d="M43.9215445,20.2839024 L45.7592205,20.2839024 L45.7796824,20.9697561 C45.768477,21.0853659 45.8673764,21.1395122 46.080765,21.1395122 L46.4544388,21.1395122 L46.1129195,22.2712195 L45.1214904,22.2712195 C44.2625766,22.3331707 43.9366474,21.9643902 43.9571093,21.5473171 L43.9215445,20.2839024 Z" id="Fill-10" fill="#FEFEFE"></path>
                            <path d="M44.1651389,25.6488293 L42.4171057,25.6488293 L42.7152652,24.6410244 L44.715175,24.6410244 L45.0021292,23.724439 L43.0260916,23.724439 L43.3646878,22.586878 L48.860664,22.586878 L48.5157344,23.724439 L46.6746481,23.724439 L46.3857452,24.6410244 L48.2341393,24.6410244 L47.9286719,25.6488293 L45.9292493,25.6488293 L45.5745759,26.0737073 L46.3857452,26.0737073 L46.5815951,27.342 C46.6044929,27.4678537 46.6079032,27.5493171 46.6473655,27.6039512 C46.6868278,27.6498049 46.9304222,27.6707805 47.0736557,27.6707805 L47.3172501,27.6707805 L46.9430891,28.9073659 L46.3199747,28.9073659 C46.2215626,28.9073659 46.080765,28.899561 45.8839408,28.8873659 C45.6963731,28.8727317 45.5638578,28.7624878 45.4367015,28.7024878 C45.3226993,28.6463902 45.1526705,28.5059024 45.1112594,28.2707805 L44.9173583,27.004439 L44.0087513,28.2527317 C43.718874,28.6463902 43.3286358,28.9463902 42.6694695,28.9463902 L41.3969325,28.9463902 L41.728708,27.8439512 L42.2163839,27.8439512 C42.3562071,27.8439512 42.4828762,27.7888293 42.5715445,27.7429756 C42.6660591,27.7029756 42.7479069,27.6551707 42.8404727,27.517122 L44.1651389,25.6488293 Z" id="Fill-12" fill="#FEFEFE"></path>
                            <path d="M25.0030314,22.8925366 L29.6357091,22.8925366 L29.2956514,24.0003415 L27.4394623,24.0003415 L27.1529953,24.9427805 L29.0471851,24.9427805 L28.7022555,26.0861951 L26.8085528,26.0861951 L26.3501082,27.6198537 C26.2940815,27.7886341 26.7978347,27.8125366 26.9815048,27.8125366 L27.9276254,27.6818049 L27.5495669,28.9461951 L25.4127571,28.9461951 C25.242241,28.9461951 25.1126488,28.9232683 24.9255683,28.8803415 C24.7457957,28.8369268 24.6683327,28.7559512 24.586485,28.6320488 C24.5095092,28.5061951 24.3901479,28.4042439 24.4724828,28.1383902 L25.0843919,26.1042439 L24.0330386,26.1042439 L24.3813785,24.9427805 L25.4395525,24.9427805 L25.719686,24.0003415 L24.6683327,24.0003415 L25.0030314,22.8925366 Z" id="Fill-14" fill="#FEFEFE"></path>
                            <path d="M28.122647,20.9032195 L30.0221959,20.9032195 L29.6743432,22.0607805 L27.0800631,22.0607805 L26.7974936,22.3037073 C26.6786196,22.4217561 26.635747,22.3724878 26.4788722,22.4588293 C26.3307668,22.5324878 26.0223764,22.6783415 25.6233688,22.6783415 L24.790276,22.6783415 L25.128385,21.5661463 L25.3792872,21.5661463 C25.5907271,21.5661463 25.734935,21.547122 25.8075261,21.5007805 C25.8893738,21.4490732 25.9819397,21.3310244 26.0871725,21.1393171 L26.5636431,20.2715122 L28.452961,20.2715122 L28.122647,20.9032195 Z" id="Fill-16" fill="#FEFEFE"></path>
                            <path d="M30.8392602,20.2839024 L32.4562396,20.2839024 L32.2219018,21.1004878 C32.2219018,21.1004878 32.7329628,20.6926829 33.0920209,20.544878 C33.4476687,20.4121951 34.2534789,20.2907317 34.2534789,20.2907317 L36.8740671,20.2790244 L35.9834861,23.2546341 C35.8290472,23.7653659 35.6565824,24.0941463 35.546965,24.2434146 C35.4485528,24.3990244 35.3321147,24.5253659 35.1036232,24.6521951 C34.8814651,24.7692683 34.6822049,24.8380488 34.4946373,24.855122 C34.3216853,24.8682927 34.0566546,24.8760976 33.6893143,24.8790244 L31.166651,24.8790244 L30.4529195,27.2341463 C30.3866618,27.4678049 30.353533,27.5780488 30.3983543,27.6409756 C30.4373294,27.6970732 30.5211259,27.7609756 30.6414615,27.7609756 L31.7532262,27.655122 L31.3727318,28.9463415 L30.126503,28.9463415 C29.7318801,28.9463415 29.4415157,28.9385366 29.2407939,28.9234146 C29.0468928,28.9073171 28.8466582,28.9234146 28.7136557,28.8185366 C28.5972176,28.7156098 28.4203681,28.5834146 28.4242656,28.4434146 C28.4374197,28.3146341 28.4890617,28.1029268 28.5709094,27.8126829 L30.8392602,20.2839024 Z M34.2758895,23.2917073 L31.6216853,23.2917073 L31.4589642,23.8263415 L33.7565463,23.8263415 C34.0269361,23.7936585 34.0829628,23.8317073 34.1063479,23.8185366 L34.2758895,23.2917073 Z M31.7678419,22.8078049 C31.7678419,22.8078049 32.2866979,22.3331707 33.1738686,22.1780488 C33.3755647,22.14 34.6403067,22.1521951 34.6403067,22.1521951 L34.8303103,21.5165854 L32.1546698,21.5165854 L31.7678419,22.8078049 Z" id="Fill-18" fill="#FEFEFE"></path>
                            <path d="M35.5584626,25.0885854 L35.4093829,25.8032195 C35.3440996,26.0261463 35.2895344,26.1959024 35.1204799,26.3393171 C34.945092,26.4880976 34.7351136,26.647122 34.2479249,26.647122 L33.3529592,26.6837073 L33.344677,27.4915122 C33.3339588,27.7207805 33.3948574,27.6973659 33.4313966,27.7334634 C33.4732948,27.774439 33.509834,27.7915122 33.5492962,27.8056585 L33.8343017,27.7915122 L34.6898051,27.7427317 L34.3375676,28.9232195 L33.3529592,28.9232195 C32.6630999,28.9232195 32.1515517,28.907122 31.9834716,28.7739512 C31.8183147,28.6690732 31.7949296,28.5354146 31.7988271,28.3100488 L31.8621616,25.1598049 L33.4343197,25.1598049 L33.4123962,25.8032195 L33.7919162,25.8032195 C33.9205341,25.8032195 34.0072537,25.789561 34.0613316,25.7563902 C34.1085889,25.7193171 34.1451281,25.669561 34.1685131,25.5915122 L34.3219776,25.0885854 L35.5584626,25.0885854 Z" id="Fill-20" fill="#FEFEFE"></path>
                            <path d="M13.1258571,9.29307317 C13.0698303,9.54673171 12.0618368,14.2072195 12.0584265,14.2091707 C11.840166,15.1516098 11.6842656,15.8262439 11.1468964,16.2594146 C10.8419162,16.5101463 10.4867556,16.6330732 10.0741068,16.6330732 C9.41396604,16.6330732 9.02470224,16.3028293 8.95990613,15.6774634 L8.94675204,15.4642927 C8.94675204,15.4642927 9.14796099,14.1999024 9.15039693,14.1940488 C9.15039693,14.1940488 10.2095453,9.94673171 10.3985745,9.3862439 C10.4053951,9.356 10.410267,9.34087805 10.4141645,9.32282927 C8.35335615,9.34380488 7.98601584,9.32282927 7.96263078,9.29307317 C7.95093825,9.33404878 7.89539874,9.59990244 7.89539874,9.59990244 L6.8153013,14.3818537 L6.72078668,14.7916098 L6.54393717,16.1164878 C6.54393717,16.5101463 6.61993861,16.8316098 6.77535182,17.1028293 C7.26887401,17.9667317 8.67295197,18.0955122 9.46560805,18.0955122 C10.4911403,18.0955122 11.450415,17.8774634 12.098376,17.4813659 C13.2247564,16.8140488 13.5219415,15.7706341 13.784049,14.8457561 L13.9058462,14.371122 C13.9058462,14.371122 14.9976362,9.95990244 15.1852039,9.3862439 C15.188127,9.356 15.1939733,9.34087805 15.2003067,9.32282927 C13.7085348,9.34087805 13.2671418,9.32282927 13.1258571,9.29307317" id="Fill-22" fill="#FEFEFE"></path>
                            <path d="M19.1576921,18.0487805 C18.4273962,18.0385366 18.1716221,18.0385366 17.3151443,18.0809756 L17.2810411,18.0170732 C17.3575297,17.6926829 17.4364543,17.3707317 17.5090454,17.0414634 L17.6157398,16.5956098 C17.7726145,15.9029268 17.9275406,15.097561 17.9455665,14.8521951 C17.959695,14.704878 18.0108498,14.335122 17.58797,14.335122 C17.4116077,14.335122 17.226476,14.4214634 17.0389083,14.5082927 C16.9365987,14.8765854 16.7280819,15.9117073 16.6296698,16.3843902 C16.4192042,17.3790244 16.4045886,17.4912195 16.3110483,17.9839024 L16.2472266,18.0487805 C15.4950072,18.0385366 15.2348484,18.0385366 14.3676524,18.0809756 L14.3262414,18.0102439 C14.4733724,17.4180488 14.6161187,16.8214634 14.7539931,16.2326829 C15.1188975,14.6312195 15.2031811,14.0185366 15.3054908,13.2058537 L15.3751587,13.1546341 C16.2184825,13.037561 16.4235889,13.0136585 17.3399909,12.8268293 L17.4155052,12.9126829 L17.2776308,13.4239024 C17.4320696,13.3307317 17.5796878,13.2385366 17.7380241,13.1546341 C18.1716221,12.944878 18.6495543,12.8809756 18.9136106,12.8809756 C19.3131053,12.8809756 19.7515752,12.9931707 19.9337838,13.4565854 C20.1096589,13.8702439 19.9946824,14.3790244 19.7652165,15.384878 L19.6468296,15.8946341 C19.4139534,17.0121951 19.3759527,17.2170732 19.2444117,17.9839024 L19.1576921,18.0487805 Z" id="Fill-24" fill="#FEFEFE"></path>
                            <path d="M22.1288614,18.0487805 C21.6884428,18.0468293 21.4034373,18.0385366 21.1267141,18.0468293 C20.8514525,18.0487805 20.5839859,18.0619512 20.1747473,18.0809756 L20.1508751,18.0468293 L20.1235925,18.0102439 C20.2346716,17.5858537 20.2980061,17.4370732 20.3530584,17.2873171 C20.4076236,17.1385366 20.4597528,16.9858537 20.5591393,16.5565854 C20.6867827,15.9985366 20.7666817,15.604878 20.8212468,15.2614634 C20.8797095,14.9297561 20.9142999,14.6463415 20.9561981,14.3190244 L20.9898141,14.2941463 L21.0253789,14.2614634 C21.4638488,14.1995122 21.7434951,14.16 22.0255774,14.1156098 C22.3135059,14.0736585 22.6014345,14.0185366 23.0550072,13.9321951 L23.072546,13.9721951 L23.0866744,14.0117073 C23.0014164,14.3580488 22.9161584,14.704878 22.8333363,15.057561 C22.7519758,15.4087805 22.6686665,15.7546341 22.5887676,16.1014634 C22.4250721,16.8404878 22.3597888,17.115122 22.3217881,17.3102439 C22.2842746,17.4990244 22.2730693,17.6019512 22.2063244,17.9839024 L22.169298,18.0170732 L22.1288614,18.0487805 Z" id="Fill-26" fill="#FEFEFE"></path>
                            <path d="M28.6930963,15.5287805 C28.9488704,14.4034146 28.7535077,13.8765854 28.5001696,13.5556098 C28.119188,13.0687805 27.4478419,12.9126829 26.7506748,12.9126829 C26.3307181,12.9126829 25.3334428,12.955122 24.5515048,13.6770732 C23.9926993,14.1941463 23.7330278,14.9 23.5742042,15.5756098 C23.418791,16.2643902 23.2346337,17.5068293 24.3741681,17.9668293 C24.7288415,18.1170732 25.2321075,18.1590244 25.5590111,18.1590244 C26.395027,18.1590244 27.2480945,17.9287805 27.8911837,17.2458537 C28.3900649,16.6897561 28.6161205,15.8663415 28.6930963,15.5287805 M26.7808805,15.4473171 C26.7423926,15.6365854 26.57821,16.3414634 26.3521544,16.6434146 C26.1967412,16.8634146 26.0106351,16.9960976 25.8055287,16.9960976 C25.7460916,16.9960976 25.385572,16.9960976 25.3792385,16.4604878 C25.3743666,16.1956098 25.4279574,15.9214634 25.4951894,15.6282927 C25.6871418,14.775122 25.9170949,14.0604878 26.4939263,14.0604878 C26.9513966,14.0604878 26.9816023,14.5921951 26.7808805,15.4473171" id="Fill-28" fill="#FEFEFE"></path>
                            <path d="M46.566346,18.1249756 C45.6845344,18.1166829 45.4307091,18.1166829 44.6141808,18.1513171 L44.5610772,18.0849756 C44.785184,17.2454634 45.0058805,16.4079024 45.2027048,15.5596098 C45.4579917,14.4576585 45.5145056,13.9898537 45.6012252,13.3469268 L45.6669956,13.2918049 C46.5434482,13.1649756 46.785581,13.1318049 47.6995471,12.9610732 L47.7282912,13.0371707 C47.5616726,13.728878 47.3931053,14.4196098 47.2342818,15.1122927 C46.8986088,16.5659512 46.7738885,17.3025366 46.6472194,18.0620488 L46.566346,18.1249756 Z" id="Fill-30" fill="#FEFEFE"></path>
                            <path d="M46.9835745,15.6283415 C47.2408101,14.5083415 46.2118675,15.5288293 46.0442746,15.1600488 C45.792398,14.5829756 45.9512215,13.4146829 44.9359202,13.0239512 C44.5427589,12.8727317 43.6258697,13.0688293 42.8405214,13.7863902 C42.2885366,14.3015122 42.0225315,15.0000488 41.8690671,15.6746829 C41.7121923,16.3517561 41.5294965,17.5932195 42.6622104,18.0380976 C43.0217556,18.1898049 43.3491465,18.2346829 43.6765373,18.2215122 C44.8155846,18.1585854 45.6847293,16.4366341 46.3258697,15.7546829 C46.8232894,15.2141951 46.9109834,15.9576098 46.9835745,15.6283415 M45.2404132,15.5449268 C45.1975406,15.7249268 45.0314092,16.439561 44.8053536,16.7356585 C44.6562739,16.9463902 44.2991645,17.0800488 44.0960068,17.0800488 C44.0390057,17.0800488 43.6794604,17.0800488 43.6663063,16.5493171 C43.662896,16.2883415 43.7189227,16.0137073 43.7846932,15.7166341 C43.9795687,14.882 44.2065987,14.1712683 44.7863533,14.1712683 C45.2409004,14.1712683 45.4367502,14.6878537 45.2404132,15.5449268" id="Fill-32" fill="#FEFEFE"></path>
                            <path d="M33.6862937,18.0487805 C32.9545362,18.0385366 32.703634,18.0385366 31.8452075,18.0809756 L31.813053,18.0170732 C31.8856441,17.6926829 31.9684662,17.3707317 32.045442,17.0414634 L32.1487261,16.5956098 C32.3065752,15.9029268 32.4600397,15.097561 32.4775785,14.8521951 C32.4926813,14.704878 32.5423746,14.335122 32.1243666,14.335122 C31.9436196,14.335122 31.761411,14.4214634 31.5733562,14.5082927 C31.4705593,14.8765854 31.260581,15.9117073 31.1587585,16.3843902 C30.9521905,17.3790244 30.9366005,17.4912195 30.8430602,17.9839024 L30.7811873,18.0487805 C30.0279935,18.0385366 29.7678347,18.0385366 28.9021003,18.0809756 L28.8636124,18.0102439 C29.0073331,17.4180488 29.1500794,16.8214634 29.288441,16.2326829 C29.6518838,14.6312195 29.7371418,14.0185366 29.8375027,13.2058537 L29.9057091,13.1546341 C30.7500072,13.037561 30.9556008,13.0136585 31.8710285,12.8268293 L31.9436196,12.9126829 L31.8101299,13.4239024 C31.9596968,13.3307317 32.11511,13.2385366 32.2710104,13.1546341 C32.6977878,12.944878 33.1830278,12.8809756 33.4422122,12.8809756 C33.8421941,12.8809756 34.2826127,12.9931707 34.469206,13.4565854 C34.642158,13.8702439 34.5266943,14.3790244 34.2943053,15.384878 L34.1798159,15.8946341 C33.9410934,17.0121951 33.9040671,17.2170732 33.777398,17.9839024 L33.6862937,18.0487805 Z" id="Fill-34" fill="#FEFEFE"></path>
                            <path d="M40.8123547,12.0202927 C40.6842241,12.6012683 40.3066528,13.0934634 39.8209256,13.3310244 C39.4199693,13.5329756 38.9303446,13.5490732 38.4241555,13.5490732 L38.0987134,13.5490732 L38.1230729,13.4173659 C38.1230729,13.4173659 38.7262125,10.7954146 38.7237766,10.8041951 L38.7388794,10.669561 L38.7525207,10.5651707 L38.9912432,10.5905366 C38.9912432,10.5905366 40.2321129,10.6988293 40.2623186,10.7012683 C40.7529177,10.8890732 40.9555882,11.3812683 40.8123547,12.0202927 M40.020673,9.28468293 C40.0172627,9.28468293 39.4146102,9.29297561 39.4146102,9.29297561 C37.8331956,9.31053659 37.1988758,9.30273171 36.9392042,9.27102439 C36.9163063,9.38663415 36.8739209,9.59492683 36.8739209,9.59492683 C36.8739209,9.59492683 36.3107307,12.2207805 36.3107307,12.2241951 C36.3107307,12.2241951 34.9553717,17.809561 34.8905756,18.0724878 C36.2702941,18.0573659 36.8364074,18.0573659 37.0722067,18.0812683 C37.1277463,17.8188293 37.4488036,16.2593171 37.4512396,16.2593171 C37.4512396,16.2593171 37.7235781,15.1124878 37.7406297,15.0715122 C37.7406297,15.0715122 37.8244262,14.9534634 37.9121201,14.9056585 L38.0387892,14.9056585 C39.2285041,14.9056585 40.5746066,14.9056585 41.6240111,14.1290732 C42.338717,13.5973659 42.8322392,12.8124878 43.0500126,11.8607805 C43.1055521,11.6251707 43.1479375,11.3451707 43.1479375,11.067122 C43.1479375,10.7012683 43.0753464,10.3402927 42.8624449,10.0573659 C42.3236142,9.30273171 41.2586196,9.29297561 40.020673,9.28468293" id="Fill-36" fill="#FEFEFE"></path>
                            <path d="M53.7871165,12.9549268 L53.7184229,12.8754146 C52.8171237,13.0559024 52.6544027,13.087122 51.8237459,13.196878 L51.7618729,13.2583415 C51.7589498,13.2680976 51.7574882,13.2832195 51.7526163,13.2963902 L51.7496932,13.2832195 C51.1299891,14.7129756 51.1514254,14.4037073 50.6491338,15.527122 C50.644262,15.474439 50.6437748,15.4402927 50.6403645,15.3876098 L50.5161313,12.9549268 L50.4381811,12.8754146 C49.4935222,13.0559024 49.4706243,13.087122 48.5966077,13.196878 L48.5279141,13.2583415 C48.5196319,13.2885854 48.5186575,13.3212683 48.5142728,13.3554146 L48.5196319,13.3690732 C48.628275,13.9266341 48.6039155,13.8002927 48.7120714,14.6807805 C48.7637134,15.1124878 48.8289967,15.5505366 48.8796643,15.9763902 C48.9658968,16.689561 49.0165644,17.0437073 49.1203356,18.1334634 C48.5322988,19.1080976 48.3890653,19.476878 47.8287982,20.3334634 L47.8585167,20.412 C48.7120714,20.3812683 48.9084085,20.3812683 49.5402923,20.3812683 L49.6801154,20.2237073 C50.1570732,19.1959024 53.7871165,12.9549268 53.7871165,12.9549268" id="Fill-38" fill="#FEFEFE"></path>
                            <path d="M22.930092,13.5584878 C23.4124088,13.2214146 23.4742818,12.7540976 23.0655305,12.5150732 C22.6523944,12.2721463 21.9313551,12.3477561 21.4451407,12.6848293 C20.9560032,13.0165366 20.9009509,13.4862927 21.311651,13.7292195 C21.7189408,13.9662927 22.444852,13.895561 22.930092,13.5584878" id="Fill-40" fill="#FEFEFE"></path>
                            <path d="M49.6141501,20.3096585 L48.9038289,21.5262439 C48.6802093,21.9438049 48.2641501,22.2540488 47.6010862,22.2569756 L46.4708083,22.2389268 L46.7996607,21.1423415 L47.0203572,21.1423415 C47.1343594,21.1423415 47.2205918,21.1350244 47.2863623,21.1033171 C47.339953,21.0852683 47.3833128,21.0399024 47.430083,20.973561 L47.8461421,20.3096585 L49.6141501,20.3096585 Z" id="Fill-42" fill="#FEFEFE"></path>
                        </g>
                    </g>
                    <path d="M68.9088524,16.5053171 L70.1126958,11.3145854 L75.6403392,11.3145854 L74.436983,16.5053171 L68.9088524,16.5053171 Z M78.548856,11.3160488 L84.0828329,11.3160488 L82.9856839,16.0453171 C82.9856839,16.0453171 82.8219885,16.480439 82.3615951,16.5072683 L77.345987,16.5072683 L78.548856,11.3160488 Z M72.7055143,23.9584878 L75.616467,23.9584878 L76.8719524,18.5297073 L83.2190473,18.5297073 C84.2567593,18.5297073 84.9622086,17.7736098 84.9622086,17.7736098 C85.6559654,17.1116585 85.8094298,16.3272683 85.8094298,16.3272683 L87.4444352,9.28434146 L79.0209419,9.28434146 L79.6961855,6.39556098 L76.78572,6.39556098 L76.1138867,9.29360976 L73.5196066,9.29360976 C71.9420895,9.32043902 70.2841862,10.5975122 70.2841862,10.5975122 L70.585756,9.29507317 L67.6942909,9.29507317 L65.5526092,18.5297073 L73.9658715,18.5297073 L72.7055143,23.9584878 Z" id="Fill-44" fill="#4C4948"></path>
                    <path d="M93.4272104,8.4217561 L107.470913,8.4217561 L104.462035,21.3900488 C104.462035,21.3900488 104.343161,21.9041951 103.810177,21.9398049 L90.2843558,21.9398049 L93.4272104,8.4217561 Z M104.692476,23.9578537 C105.651263,23.9661463 106.330891,23.2915122 106.330891,23.2915122 C107.090906,22.6324878 107.265807,21.7612683 107.265807,21.7612683 L110.839823,6.39297561 L96.8346084,6.39492683 C95.2488091,6.43492683 93.5962649,7.70126829 93.5962649,7.70126829 L93.8978347,6.39882927 L90.997113,6.39882927 L86.9237279,23.9578537 L104.692476,23.9578537 Z" id="Fill-46" fill="#4C4948"></path>
                    <path d="M92.6536034,18.3803415 L92.1829791,20.3983902 L103.159341,20.3983902 L103.628991,18.371561 L103.07116,18.371561 C103.086263,17.6130244 103.020493,16.9100976 103.020493,16.9100976 L100.92753,16.9100976 C101.059558,17.5886341 101.069302,18.371561 101.069302,18.371561 L99.5848376,18.371561 L100.09054,16.1866829 L104.136155,16.1866829 L104.60483,14.1657073 L100.559702,14.1657073 L101.066866,11.9847317 L105.110532,11.9847317 L105.58408,9.96668293 L94.6057687,9.96668293 L94.1336828,11.9930244 L98.1734518,11.9930244 L97.6692115,14.169122 L93.6304168,14.169122 L93.1622284,16.1803415 L97.1966384,16.1803415 L96.684603,18.3803415 L92.6536034,18.3803415 Z" id="Fill-48" fill="#4C4948"></path>
                    <path d="M116.996866,9.768 L121.852676,9.768 L122.324275,7.74214634 L118.522741,7.74214634 C118.800926,7.31629268 119.178984,6.39873171 119.178984,6.39873171 L116.13308,6.39873171 C115.316065,8.99385366 113.997245,9.09580488 113.997245,9.09580488 L113.092535,9.09580488 L112.614603,11.1601951 L113.959244,11.1601951 C115.707277,11.1601951 116.996866,9.768 116.996866,9.768" id="Fill-50" fill="#4C4948"></path>
                    <path d="M112.648804,22.1322439 C112.648804,22.1322439 112.329695,23.1746829 113.107735,23.6756585 C113.107735,23.6756585 113.431716,23.9302927 114.155678,23.9576098 L118.547198,23.9576098 L119.015873,21.9405366 L116.186768,21.9405366 C116.186768,21.9405366 115.601655,21.9454146 115.721503,21.2898049 L116.362643,18.5346829 L119.807555,18.5346829 L120.278179,16.5083415 L116.840088,16.5083415 L117.496332,13.6756585 L120.934423,13.6756585 L121.405047,11.6522439 L113.011759,11.6522439 L112.541135,13.6756585 L114.609738,13.6756585 L113.952034,16.5073659 L111.883917,16.5073659 L111.413293,18.5366341 L113.482384,18.5366341 L112.648804,22.1322439 Z" id="Fill-52" fill="#4C4948"></path>
                    <path d="M125.23055,12.0636585 L130.472701,12.0636585 L130.100002,13.6709756 L124.8598,13.6709756 L125.23055,12.0636585 Z M126.074848,8.43585366 L131.316999,8.43585366 L130.943326,10.0441463 L128.519074,10.0441463 C126.959096,10.1397561 125.400579,11.334878 125.400579,11.334878 L126.074848,8.43585366 Z M120.188147,23.4529268 C120.635873,23.9939024 121.608789,23.9578049 121.608789,23.9578049 L124.96893,23.9578049 L125.438093,21.9387805 L123.543416,21.9387805 C122.924686,21.892439 123.086433,21.29 123.086433,21.29 L124.385278,15.6943902 L130.414239,15.6943902 C131.284358,15.6943902 131.806624,15.2421951 131.806624,15.2421951 C132.819489,14.5773171 133.05675,13.4270732 133.05675,13.4270732 L134.689807,6.39487805 L129.479811,6.39487805 C127.976833,6.3997561 126.243903,7.70512195 126.243903,7.70512195 L126.546934,6.39487805 L123.646213,6.39487805 L120.008374,22.052439 C119.753575,23.0173171 120.188147,23.4529268 120.188147,23.4529268 L120.188147,23.4529268 Z" id="Fill-54" fill="#4C4948"></path>
                    <path d="M130.425493,16.5100976 L130.174103,17.5954634 C130.08446,17.911561 129.705428,17.911561 129.705428,17.911561 L128.658946,17.911561 L128.629715,16.5061951 L125.743122,16.5061951 L125.839098,22.3944878 C125.845431,23.036439 126.010101,23.3452195 126.010101,23.3452195 C126.306312,24.0300976 127.693825,23.9613171 127.693825,23.9613171 L130.906348,23.9613171 L131.375511,21.9408293 L129.262573,21.9408293 C128.746153,21.9408293 128.724717,21.5232683 128.724717,21.5232683 L128.690613,19.4783902 L130.044998,19.4783902 C131.171379,19.4783902 131.634208,19.0759512 131.634208,19.0759512 C132.147218,18.7442439 132.286554,18.0374146 132.286554,18.0374146 L132.64074,16.5100976 L130.425493,16.5100976 Z" id="Fill-56" fill="#4C4948"></path>
                    <path d="M139.071193,18.1936098 L141.851579,18.1936098 L141.186079,21.0584878 L138.405693,21.0584878 L139.071193,18.1936098 Z M140.202445,13.3214146 L142.985754,13.3214146 L142.31587,16.2014146 C142.31587,16.2014146 141.02482,16.2184878 139.235863,17.4853171 L140.202445,13.3214146 Z M141.338569,8.42190244 L144.120417,8.42190244 L143.451994,11.3033659 C143.451994,11.3033659 142.160944,11.3214146 140.372474,12.5877561 L141.338569,8.42190244 Z M134.01125,23.080439 L140.718865,23.080439 L140.513271,23.9594634 L143.406198,23.9594634 L143.61033,23.0858049 L144.454628,23.0858049 L144.923791,21.0697073 L144.076083,21.0697073 L147.011882,8.42531707 L147.866411,8.42531707 L148.338984,6.39507317 L144.657786,6.39507317 C143.069551,6.51165854 141.507624,7.69702439 141.507624,7.69702439 L141.808706,6.39556098 L138.919677,6.39556098 L135.520074,21.0653171 L134.478464,21.0653171 L134.01125,23.080439 Z" id="Fill-58" fill="#4C4948"></path>
                    <path d="M147.056021,13.3183902 L150.690936,13.3174146 L150.247595,15.2374146 L146.612192,15.2374146 L146.147414,17.2398537 L149.474426,17.2398537 L146.969302,21.3500976 C146.539601,21.9666829 146.117209,21.9427805 146.117209,21.9427805 L145.051727,21.9427805 L144.583538,23.9579024 L146.686245,23.9579024 C147.812138,23.9749756 148.415278,23.4032683 148.415278,23.4032683 C148.937057,22.996439 149.365783,22.1910732 149.365783,22.1910732 L150.838555,19.7520488 L151.258999,22.158878 C151.360821,22.9305854 151.628775,23.2832683 151.628775,23.2832683 C152.058475,23.9481463 153.192163,23.9593659 153.192163,23.9593659 L154.730706,23.9593659 L155.20133,21.934 L154.487598,21.934 C154.119771,21.8910732 153.986768,21.1559512 153.986768,21.1559512 L153.480579,18.2749756 L151.740828,18.2749756 L152.362968,17.2427805 L156.292633,17.2427805 L156.758872,15.2408293 L153.127367,15.2408293 L153.574607,13.3183902 L157.206599,13.3183902 L157.675274,11.316439 L147.522261,11.316439 L147.056021,13.3183902 Z" id="Fill-60" fill="#4C4948"></path>
                    <path d="M157.332634,9.10726829 C157.332634,9.10726829 158.339654,8.11653659 158.815637,6.39458537 L155.6645,6.39458537 C155.6645,6.39458537 155.427726,7.12092683 155.123233,7.55556098 C155.123233,7.55556098 154.71838,8.18921951 153.633898,8.20678049 L153.163273,10.2360488 L154.908383,10.2360488 C154.908383,10.2360488 156.20869,10.3077561 157.332634,9.10726829" id="Fill-62" fill="#4C4948"></path>
                    <path d="M150.797485,10.2362927 L152.540159,10.2362927 L153.01127,8.20702439 C151.93507,8.18946341 151.823504,7.55580488 151.823504,7.55580488 C151.723143,7.12068293 151.823504,6.39482927 151.823504,6.39482927 L148.67188,6.39482927 C148.345951,8.11629268 148.896474,9.1075122 148.896474,9.1075122 C149.465023,10.3075122 150.797485,10.2362927 150.797485,10.2362927" id="Fill-64" fill="#4C4948"></path>
                    <path d="M66.9306225,35.1012195 C65.4183887,35.1012195 64.1823908,33.6729268 64.6354764,31.7178049 C65.1041519,29.6953659 66.9924955,28.3221951 68.5032678,28.3221951 C69.9580134,28.3221951 70.6035384,28.7187805 70.8802616,28.8597561 L71.7620733,27.5012195 C71.4088614,27.2617073 70.6064616,26.8085366 68.6426038,26.8085366 C65.8437044,26.8085366 63.1987568,28.8309756 62.5288722,31.7178049 C61.8589877,34.6065854 63.5704818,36.6153659 66.3674323,36.6153659 C68.1490816,36.6153659 69.1463569,36.2758537 69.8946788,35.9226829 L69.6116222,34.5792683 C69.0688939,34.7763415 68.3166745,35.1012195 66.9306225,35.1012195" id="Fill-66" fill="#4C4948"></path>
                    <path d="M76.3404294,30.0619512 C75.2510754,30.0619512 74.310314,30.6439024 74.016052,30.8126829 L75.0328149,26.4253659 L73.1215734,26.6243902 L70.8473764,36.4321951 L72.7108733,36.4321951 L73.7524829,31.9458537 C74.0296933,31.7892683 74.5602418,31.4512195 75.1122266,31.4512195 C75.8322916,31.4512195 76.0237568,31.7892683 75.8780873,32.4126829 L74.948044,36.4321951 L76.7974125,36.4321951 L77.8326886,31.9741463 C78.1011296,30.8126829 77.5559654,30.0619512 76.3404294,30.0619512" id="Fill-68" fill="#4C4948"></path>
                    <path d="M79.8963226,27.9535122 C79.7823205,28.4481463 80.129686,28.9022927 80.622721,28.9022927 C81.1342692,28.9022927 81.6906388,28.4481463 81.8036665,27.9535122 C81.9215662,27.458878 81.575175,26.9920488 81.0680115,26.9920488 C80.5720534,26.9920488 80.0127607,27.458878 79.8963226,27.9535122" id="Fill-70" fill="#4C4948"></path>
                    <polygon id="Fill-72" fill="#4C4948" points="79.4038722 30.2039024 77.9578961 36.4321951 79.8126236 36.4321951 81.2571382 30.2039024"></polygon>
                    <path d="M86.6303428,30.0619512 C85.500065,30.0619512 84.5748935,30.6439024 84.2806315,30.8126829 L84.3507867,30.2039024 L82.598856,30.2039024 L81.1528798,36.4321951 L83.0061458,36.4321951 L84.0438578,31.9458537 C84.3215554,31.7892683 84.8116673,31.4512195 85.4055503,31.4512195 C86.1114868,31.4512195 86.3156189,31.7892683 86.1699495,32.4126829 L85.2399062,36.4321951 L87.092685,36.4321951 L88.1250379,31.9741463 C88.3929917,30.8126829 87.8453916,30.0619512 86.6303428,30.0619512" id="Fill-74" fill="#4C4948"></path>
                    <path d="M92.1830765,34.8325366 C91.8761476,35.0022927 91.3436503,35.3432683 90.8511025,35.3432683 C90.5110447,35.3432683 89.9064435,35.256439 90.0662414,34.578878 C90.2294497,33.8710732 91.0138235,33.6579024 91.5794497,33.6027805 L92.4846463,33.5310732 L92.1830765,34.8325366 Z M92.6673421,30.0618049 C91.3256243,30.0618049 90.2757326,30.5013171 89.8051083,30.6993659 L89.9814706,31.6486341 C90.3668369,31.5057073 90.9884897,31.2661951 91.8391213,31.2661951 C92.7998575,31.2661951 92.9026543,31.734 92.775498,32.2847317 L92.7019325,32.596439 L91.3777535,32.6393659 C89.7783129,32.7096098 88.6061368,33.6159512 88.338183,34.776439 C88.0975117,35.8100976 88.7250108,36.5720488 89.9707524,36.5720488 C90.9032317,36.5720488 91.5745778,36.1208293 91.9424053,35.8793659 C91.9078149,36.0232683 91.9092764,36.2627805 91.9394821,36.4320488 L93.8755702,36.4320488 C93.833672,36.2471707 93.8102869,35.7959512 93.8921346,35.456439 L94.6911241,32.0018049 C94.9727192,30.7861951 94.1527806,30.0618049 92.6673421,30.0618049 L92.6673421,30.0618049 Z" id="Fill-76" fill="#4C4948"></path>
                    <path d="M105.676402,26.9921951 L104.296684,32.9365854 C104.050653,33.9990244 103.182483,35.1307317 101.725789,35.1307317 C100.254966,35.1307317 99.8301371,34.3370732 100.156066,32.9365854 L101.533836,26.9921951 L99.5256442,26.9921951 L98.0928221,33.177561 C97.6265825,35.1878049 98.7091158,36.615122 101.281472,36.615122 C103.8397,36.615122 105.614529,35.1156098 106.063717,33.177561 L107.498001,26.9921951 L105.676402,26.9921951 Z" id="Fill-78" fill="#4C4948"></path>
                    <path d="M112.13024,30.0619512 C110.997526,30.0619512 110.073816,30.6439024 109.779554,30.8126829 L109.849222,30.2039024 L108.098266,30.2039024 L106.65229,36.4321951 L108.506043,36.4321951 L109.546191,31.9458537 C109.82194,31.7892683 110.310103,31.4512195 110.902524,31.4512195 C111.609922,31.4512195 111.815029,31.7892683 111.668872,32.4126829 L110.738342,36.4321951 L112.590146,36.4321951 L113.622986,31.9741463 C113.893376,30.8126829 113.34675,30.0619512 112.13024,30.0619512" id="Fill-80" fill="#4C4948"></path>
                    <path d="M115.81363,27.9535122 C115.697192,28.4481463 116.043584,28.9022927 116.53808,28.9022927 C117.048654,28.9022927 117.605998,28.4481463 117.72,27.9535122 C117.835464,27.458878 117.490534,26.9920488 116.982883,26.9920488 C116.488874,26.9920488 115.927633,27.458878 115.81363,27.9535122" id="Fill-82" fill="#4C4948"></path>
                    <polygon id="Fill-84" fill="#4C4948" points="113.87535 36.4321951 115.727154 36.4321951 117.172156 30.2039024 115.320352 30.2039024"></polygon>
                    <path d="M122.542438,33.3186341 C122.293971,34.3800976 121.436519,35.3430244 120.502578,35.3430244 C119.388865,35.3430244 119.130168,34.3800976 119.376685,33.3186341 C119.624177,32.2430244 120.325242,31.2927805 121.441391,31.2927805 C122.374845,31.2927805 122.790904,32.2430244 122.542438,33.3186341 M121.726884,30.0620488 C119.833181,30.0620488 117.872246,31.3235122 117.410879,33.3186341 C116.948049,35.3157073 118.322896,36.5722927 120.216599,36.5722927 C122.112737,36.5722927 124.07221,35.3157073 124.533578,33.3186341 C124.996895,31.3235122 123.620586,30.0620488 121.726884,30.0620488" id="Fill-86" fill="#4C4948"></path>
                    <path d="M130.250884,30.0619512 C129.120606,30.0619512 128.192999,30.6439024 127.900686,30.8126829 L127.968892,30.2039024 L126.218423,30.2039024 L124.776344,36.4321951 L126.625713,36.4321951 L127.665861,31.9458537 C127.942097,31.7892683 128.430747,31.4512195 129.024143,31.4512195 C129.732028,31.4512195 129.93616,31.7892683 129.791465,32.4126829 L128.859473,36.4321951 L130.709816,36.4321951 L131.74363,31.9741463 C132.012559,30.8126829 131.465446,30.0619512 130.250884,30.0619512" id="Fill-88" fill="#4C4948"></path>
                    <path d="M143.311732,34.8325366 C143.002855,35.0022927 142.47328,35.3432683 141.978297,35.3432683 C141.638239,35.3432683 141.035586,35.256439 141.193436,34.578878 C141.358105,33.8710732 142.142479,33.6579024 142.708105,33.6027805 L143.613302,33.5310732 L143.311732,34.8325366 Z M145.018842,35.456439 L145.81978,32.0018049 C146.101862,30.7861951 145.279975,30.0618049 143.795998,30.0618049 C142.451357,30.0618049 141.403901,30.5013171 140.934251,30.6993659 L141.109152,31.6486341 C141.49598,31.5057073 142.116658,31.2661951 142.965341,31.2661951 C143.927052,31.2661951 144.031797,31.734 143.902692,32.2847317 L143.830588,32.596439 L142.506409,32.6393659 C140.906481,32.7096098 139.734792,33.6159512 139.46489,34.776439 C139.228116,35.8100976 139.853667,36.5720488 141.097947,36.5720488 C142.030426,36.5720488 142.702746,36.1208293 143.069599,35.8793659 C143.035496,36.0232683 143.037932,36.2627805 143.069599,36.4320488 L145.004713,36.4320488 C144.963302,36.2471707 144.941379,35.7959512 145.018842,35.456439 L145.018842,35.456439 Z" id="Fill-90" fill="#4C4948"></path>
                    <path d="M149.134661,34.4085854 L148.525675,30.2037073 L146.615895,30.2037073 L147.74666,36.5446829 L147.325729,37.2115122 C146.762539,37.9880976 146.468277,38.527122 145.761853,38.527122 C145.30828,38.527122 145.02766,38.3988293 144.743141,38.2861463 L144.034282,39.3915122 C144.320749,39.5602927 144.670063,39.829561 145.798392,39.829561 C146.959363,39.829561 147.664812,39.036878 148.298645,38.0173659 L153.230457,30.2037073 L151.633939,30.2037073 L149.134661,34.4085854 Z" id="Fill-92" fill="#4C4948"></path>
                    <path d="M138.659177,29.7094146 C138.424352,30.7279512 137.423667,31.1650244 136.553547,31.1650244 L135.826662,31.1650244 L136.48729,28.3089268 L137.211739,28.3089268 C138.081859,28.3089268 138.883771,28.7328293 138.659177,29.7094146 M140.791602,29.7094146 C141.136532,28.2089268 140.155821,26.9923415 137.834854,26.9923415 L134.758744,26.9923415 L132.582959,36.4323415 L134.614049,36.4323415 L135.518759,32.5128293 L136.518957,32.5128293 C138.492559,32.5128293 140.40039,31.4074634 140.791602,29.7094146" id="Fill-94" fill="#4C4948"></path>
                </g>
                <text id="一窗办备份" font-family="FZYLHJW" font-size="24" font-weight="normal" letter-spacing="0.38666665" fill="#4C4948">
                    <tspan x="183" y="28">一窗办</tspan>
                </text>
                <g id="编组-2" transform="translate(267.000000, 8.000000)">
                    <path d="M1.768,7.152 L1.768,1.088 C1.78933333,0.88 1.90133333,0.768 2.104,0.752 L2.104,0.752 L6.68,0.752 C6.90933333,0.768 7.032,0.88 7.048,1.088 L7.048,1.088 L7.048,6.144 C7.03733333,6.352 6.91733333,6.46133333 6.688,6.472 L6.688,6.472 L5.744,6.472 L5.96,7.072 L6.968,7.072 C7.512,7.05066667 7.79466667,6.78133333 7.816,6.264 L7.816,6.264 L7.816,1.176 C7.83733333,0.472 7.47733333,0.130666667 6.736,0.152 L6.736,0.152 L1.88,0.152 C1.32533333,0.184 1.032,0.456 1,0.968 L1,0.968 L1,7.152 L1.768,7.152 Z M4.88,6.064 C5.18933333,5.568 5.46933333,5.05866667 5.72,4.536 L5.72,4.536 L6.232,5.92 L6.992,5.92 C6.69333333,5.11466667 6.4,4.36 6.112,3.656 C6.432,2.89333333 6.70133333,2.12533333 6.92,1.352 L6.92,1.352 L6.208,1.352 C6.08,1.816 5.928,2.28266667 5.752,2.752 C5.544,2.25066667 5.34133333,1.784 5.144,1.352 L5.144,1.352 L4.432,1.352 C4.69866667,1.96 5.01333333,2.728 5.376,3.656 C5.08266667,4.328 4.768,4.93866667 4.432,5.488 C4.112,4.752 3.84266667,4.144 3.624,3.664 C3.896,2.93866667 4.13066667,2.168 4.328,1.352 L4.328,1.352 L3.608,1.352 C3.50133333,1.82133333 3.368,2.29066667 3.208,2.76 C3.05333333,2.424 2.82666667,1.95466667 2.528,1.352 L2.528,1.352 L1.824,1.352 C1.85066667,1.416 1.896,1.512 1.96,1.64 C2.36,2.52533333 2.664,3.20533333 2.872,3.68 C2.584,4.39466667 2.232,5.104 1.816,5.808 L1.816,5.808 L2.488,6.064 C2.77066667,5.58933333 3.02666667,5.09333333 3.256,4.576 L3.256,4.576 L3.688,5.608 L4.36,5.608 C4.344,5.64 4.31733333,5.68266667 4.28,5.736 L4.28,5.736 L4.232,5.808 L4.88,6.064 Z M14.9848889,6.96 C15.4755555,6.944 15.7288889,6.68266667 15.7448889,6.176 L15.7448889,6.176 L15.7448889,4.04 C15.7182222,3.528 15.4595555,3.25866667 14.9688889,3.232 L14.9688889,3.232 L14.0328889,3.232 L14.0328889,1.808 L16.0488889,1.808 L16.0488889,1.208 L14.0328889,1.208 L14.0328889,0.056 L13.2888889,0.056 L13.2888889,3.232 L12.7688889,3.232 C12.2622222,3.25333333 11.9982222,3.51466667 11.9768889,4.016 L11.9768889,4.016 L11.9768889,6.2 C11.9875555,6.696 12.2462222,6.94933333 12.7528889,6.96 L12.7528889,6.96 L14.9848889,6.96 Z M12.0568889,1.776 L12.0568889,1.184 L10.8728889,1.184 C10.7342222,0.757333333 10.5902222,0.386666667 10.4408889,0.072 L10.4408889,0.072 L9.72088888,0.072 C9.81688888,0.322666667 9.94755555,0.693333333 10.1128889,1.184 L10.1128889,1.184 L8.92088888,1.184 L8.92088888,1.776 L12.0568889,1.776 Z M11.3208889,5.216 C11.4648889,4.27733333 11.5662222,3.30133333 11.6248889,2.288 L11.6248889,2.288 L10.9128889,2.288 C10.8648889,3.232 10.7555555,4.208 10.5848889,5.216 L10.5848889,5.216 L11.3208889,5.216 Z M10.2888889,5.216 C10.1128889,4.29866667 9.96888888,3.32266667 9.85688888,2.288 L9.85688888,2.288 L9.15288888,2.288 C9.24888888,3.25333333 9.38488888,4.22933333 9.56088888,5.216 L9.56088888,5.216 L10.2888889,5.216 Z M14.6728889,6.376 L13.0248889,6.376 C12.8328889,6.36 12.7288889,6.25333333 12.7128889,6.056 L12.7128889,6.056 L12.7128889,4.152 C12.7342222,3.95466667 12.8408889,3.84533333 13.0328889,3.824 L13.0328889,3.824 L14.6808889,3.824 C14.8675555,3.84533333 14.9715555,3.94933333 14.9928889,4.136 L14.9928889,4.136 L14.9928889,6.056 C14.9768889,6.248 14.8702222,6.35466667 14.6728889,6.376 L14.6728889,6.376 Z M8.97688888,6.664 C9.96355555,6.472 10.8968889,6.28 11.7768889,6.088 L11.7768889,6.088 L11.7768889,5.416 C10.6195555,5.66666667 9.64355555,5.86666667 8.84888888,6.016 L8.84888888,6.016 L8.97688888,6.664 Z M24.1697778,7.328 L24.3937778,6.608 C23.1724444,6.384 22.1697778,6.07733333 21.3857778,5.688 C22.2391111,5.128 22.9377778,4.42933333 23.4817778,3.592 C23.6044444,3.384 23.6337778,3.20533333 23.5697778,3.056 C23.4417778,2.85866667 23.2497778,2.76 22.9937778,2.76 L22.9937778,2.76 L21.0257778,2.76 L21.0257778,1.752 L24.1297778,1.752 L24.1297778,1.136 L21.0257778,1.136 L21.0257778,-2.97006864e-12 L20.2257778,-2.97006864e-12 L20.2257778,1.136 L17.1297778,1.136 L17.1297778,1.752 L20.2257778,1.752 L20.2257778,2.76 L17.8177778,2.76 L17.8177778,3.36 L22.4257778,3.36 C22.5271111,3.36 22.5884444,3.376 22.6097778,3.408 C22.6471111,3.45066667 22.6231111,3.52266667 22.5377778,3.624 C22.0524444,4.264 21.4257778,4.816 20.6577778,5.28 C20.0231111,4.864 19.4657778,4.36 18.9857778,3.768 L18.9857778,3.768 L18.1377778,3.768 C18.6871111,4.54133333 19.2951111,5.168 19.9617778,5.648 C19.1244444,6.05866667 18.0871111,6.37866667 16.8497778,6.608 L16.8497778,6.608 L17.0817778,7.24 C18.4684444,6.99466667 19.6657778,6.616 20.6737778,6.104 C21.5537778,6.6 22.7191111,7.008 24.1697778,7.328 L24.1697778,7.328 Z M26.1306667,7.104 C26.6213333,7.06133333 26.888,6.8 26.9306666,6.32 L26.9306666,6.32 L26.9306666,4.248 L27.7386666,3.96 L27.6666666,3.328 L26.9306666,3.584 L26.9306666,2.024 L27.7706667,2.024 L27.7706667,1.424 L26.9306666,1.424 L26.9306666,0.04 L26.1786667,0.04 L26.1786667,1.424 L25.1866667,1.424 L25.1866667,2.024 L26.1786667,2.024 L26.1786667,3.832 C25.9173333,3.92266667 25.5573333,4.04266667 25.0986666,4.192 L25.0986666,4.192 L25.2426666,4.832 L26.1786667,4.512 L26.1786667,6.16 C26.1733333,6.37866667 26.0506666,6.49066667 25.8106666,6.496 L25.8106666,6.496 L25.2026667,6.496 L25.3786667,7.104 L26.1306667,7.104 Z M32.3146666,3.032 L32.3146666,2.456 L30.4186666,2.456 L30.4186666,1.496 L32.0906667,1.496 L32.0906667,0.92 L30.4186666,0.92 L30.4186666,0.048 L29.6666666,0.048 L29.6666666,0.92 L28.0986666,0.92 L28.0986666,1.496 L29.6666666,1.496 L29.6666666,2.456 L27.8266666,2.456 L27.8266666,3.032 L32.3146666,3.032 Z M30.7386666,7.088 C31.2346666,7.04533333 31.5013333,6.78666667 31.5386666,6.312 L31.5386666,6.312 L31.5386666,4.448 L32.3226666,4.448 L32.3226666,3.872 L31.5386666,3.872 L31.5386666,3.216 L30.7866666,3.216 L30.7866666,3.872 L27.8426667,3.872 L27.8426667,4.448 L30.7866666,4.448 L30.7866666,6.144 C30.776,6.37333333 30.6613333,6.49333333 30.4426666,6.504 L30.4426666,6.504 L29.6346666,6.504 L29.8026666,7.088 L30.7386666,7.088 Z M29.8586666,5.992 C29.5173333,5.432 29.256,5.02933333 29.0746666,4.784 L29.0746666,4.784 L28.2906666,4.784 C28.5413333,5.168 28.776,5.57066667 28.9946666,5.992 L28.9946666,5.992 L29.8586666,5.992 Z" id="网站支持" fill="#666666" fill-rule="nonzero"></path>
                    <path d="M7.918,19.768 L7.918,13.108 L7,13.108 L7,19.768 L7.918,19.768 Z M11.294,19.768 L11.294,17.23 L11.753,17.23 C13.865,17.296 14.87,16.624 14.768,15.214 C14.87,13.732 13.871,13.027 11.771,13.099 L11.771,13.099 L10.367,13.099 L10.367,19.768 L11.294,19.768 Z M12.095945,16.3960414 L11.897,16.393 L11.294,16.393 L11.294,13.927 L11.897,13.927 C13.265,13.885 13.913,14.314 13.841,15.214 C13.907,16.042 13.259,16.435 11.897,16.393 L12.095945,16.3960414 Z M19.107,19.768 L20.727,14.809 L19.746,14.809 C19.614,15.259 19.416,15.931 19.152,16.825 C18.858,17.791 18.642,18.517 18.504,19.003 L18.504,19.003 L17.217,14.809 L16.236,14.809 L17.865,19.768 L19.107,19.768 Z M24.796,19.894 C26.254,19.84 27.007,19.054 27.055,17.536 C27.025,16.108 26.266,15.379 24.778,15.349 C24.334,15.343 23.869,15.511 23.383,15.853 C23.623,14.521 24.205,13.837 25.129,13.801 C25.633,13.801 26.086,13.897 26.488,14.089 L26.488,14.089 L26.839,13.45 C26.323,13.15 25.75,13 25.12,13 C23.332,13.042 22.426,14.296 22.402,16.762 C22.384,18.88 23.182,19.924 24.796,19.894 Z M24.796,19.102 C23.794,19.138 23.302,18.37 23.32,16.798 C23.836,16.342 24.322,16.114 24.778,16.114 C25.672,16.132 26.125,16.606 26.137,17.536 C26.113,18.544 25.666,19.066 24.796,19.102 Z" id="IPv6" fill="#D0021B" fill-rule="nonzero"></path>
                    <rect id="矩形备份-2" stroke="#D0021B" x="0.5" y="9.5" width="33" height="13" rx="6.5"></rect>
                </g>
            </g>
        </g>
    </g>
</svg>