<?xml version="1.0" encoding="UTF-8"?>
<svg width="18px" height="18px" viewBox="0 0 18 18" version="1.1" xmlns="http://www.w3.org/2000/svg" xmlns:xlink="http://www.w3.org/1999/xlink">
    <!-- Generator: Sketch 59.1 (86144) - https://sketch.com -->
    <desc>Created with Sketch.</desc>
    <g id="页面-1" stroke="none" stroke-width="1" fill="none" fill-rule="evenodd">
        <path d="M17.4872081,5.57104594 L9.56407105,0.211424737 C9.14177187,-0.0749376954 8.57870629,-0.0691330515 8.16243995,0.221099144 L0.498715227,5.56911106 C0.185007262,5.78775265 0,6.13603128 0,6.50946337 L0,15.8917028 C0,16.5321485 0.540945146,17.0526316 1.2065691,17.0526316 L16.7934309,17.0526316 C17.4590549,17.0526316 18,16.5321485 18,15.8917028 L18,6.52107266 C18,6.14183592 17.8089599,5.78775265 17.4872081,5.57104594 Z M14.7261758,10.0870589 C14.7261758,10.2998958 14.5451905,10.4740352 14.3239861,10.4740352 C14.1027818,10.4740352 13.9217964,10.2998958 13.9217964,10.0870589 L13.9217964,8.32825179 L10.2498045,11.861345 C10.1311585,11.975503 9.95821696,12.0025914 9.81342867,11.9464798 C9.7651659,11.927131 9.71891409,11.9000427 9.68070607,11.861345 L6.82717015,9.11574848 L3.97363423,11.861345 C3.89520724,11.9368054 3.79264887,11.975503 3.69009049,11.975503 C3.58753212,11.975503 3.48497375,11.9387403 3.40654675,11.861345 C3.24969277,11.7104243 3.24969277,11.4646944 3.40654675,11.3137736 L6.54362641,8.29535881 C6.62004245,8.22183332 6.72058988,8.1831357 6.82717015,8.1831357 C6.93375042,8.1831357 7.03630879,8.2237682 7.11272484,8.29535881 L9.96626075,11.0409554 L13.3808513,7.75552693 L11.4965926,7.75552693 C11.2753882,7.75552693 11.0944029,7.58332249 11.0944029,7.36855067 C11.0944029,7.15571373 11.2753882,6.98157441 11.4965926,6.98157441 L14.3219752,6.98157441 C14.5431795,6.98157441 14.7241649,7.15571373 14.7241649,7.36855067 L14.7241649,10.0870589 L14.7261758,10.0870589 Z" id="2" fill="#999999" fill-rule="nonzero"></path>
    </g>
</svg>