<?xml version="1.0" encoding="UTF-8"?>
<svg width="16px" height="18px" viewBox="0 0 16 18" version="1.1" xmlns="http://www.w3.org/2000/svg" xmlns:xlink="http://www.w3.org/1999/xlink">
    <!-- Generator: Sketch 59.1 (86144) - https://sketch.com -->
    <desc>Created with Sketch.</desc>
    <g id="页面-1" stroke="none" stroke-width="1" fill="none" fill-rule="evenodd">
        <path d="M12.1138972,11.3723981 L14.6287157,13.7654985 C13.2950563,15.0174109 11.0861205,17.3007009 11.0861205,17.3007009 L11.0861205,17.3007009 L10.7049437,17.5581006 C10.59012,17.5581006 10.4376493,17.5581006 10.3237668,17.6688004 C10.2098844,17.6688004 10.0574137,17.7795003 9.94259002,17.7795003 C9.67623683,17.7795003 9.52376611,17.8893001 9.40988365,17.8893001 C9.29506001,18 9.14258929,18 9.02870683,18 L9.02870683,18 L8.91388319,18 C8.49505928,18 8.22870609,17.7426003 8.11388246,17.6310005 C8,17.3745008 8,17.1162012 8,16.7490016 C8,16.7490016 8.11388246,16.490702 8.11388246,16.3800021 L8.11388246,16.3800021 L8.22870609,16.0119026 C8.22870609,15.9012027 8.34258855,15.7545029 8.34258855,15.6438031 C8.34258855,15.3855034 8.45741219,15.4224034 8.45741219,15.2757035 C8.45741219,15.1281037 8.57129464,15.1281037 8.57129464,15.0183039 C8.57129464,14.907604 8.72376537,14.7600042 8.83764783,14.6493044 C8.83860004,14.6492903 10.9336608,12.6611964 12.1138972,11.3723981 L12.1138972,11.3723981 Z M15.186292,0 C15.4140489,0 15.5533383,0.0630067011 15.7848598,0.286206658 C15.9290885,0.414846867 16.0074512,0.59725855 15.9994408,0.78570656 L15.9994408,0.78570656 L15.9994407,7.97130899 C15.9994407,8.38260891 15.7283911,8.75700884 15.1862919,8.75700884 C13.7134083,8.12070896 12.7844987,9.01890879 12.7844987,9.01890879 L12.7844987,9.01890879 L7.74750101,13.7709079 C7.74750101,13.7709079 6.27555111,15.567304 6.27555111,17.3637001 C6.27555111,17.7381001 6.00450151,18 5.46240232,18 L5.46240232,18 L0.813148794,18 C0.387751508,18 0,17.5887001 0,17.2143002 L0,17.2143002 L0,0.785699847 C0,0.374399927 0.42633843,0 0.813148794,0 L0.813148794,0 Z M14.2098807,9.9 C14.3237632,9.9 14.4376456,10.0106999 14.5901164,10.0106999 C14.7425871,10.0106999 14.7425871,10.1204997 14.8574107,10.1204997 C15.0098814,10.2680995 15.2762346,10.3787994 15.3901171,10.636199 C15.5049407,10.7468989 15.6574114,11.0042986 15.7712939,11.2625982 L15.7712939,11.2626017 L16,11.5560014 L15.9994728,12.0064508 C15.9968366,12.1537006 15.9810196,12.3484503 15.8861175,12.4407002 C15.8861175,12.5505001 15.7336468,12.6980999 15.6188232,12.8078997 L15.6188232,12.8078997 L15.2376464,13.1768992 L12.76235,10.7837988 L13.2950563,10.2680995 C13.4475271,10.1204997 13.7138803,10.0106999 13.8287039,10.0106999 C13.9425863,9.9 14.0950571,9.9 14.2098807,9.9 Z M11.3106775,6.28650229 L4.53160679,6.28650229 C4.26055719,6.28650229 3.9895076,6.54930224 3.9895076,6.92280216 C3.9895076,7.29810209 4.26055719,7.55910204 4.53160679,7.55910204 L4.53160679,7.55910204 L11.3106775,7.55910204 C11.698429,7.55910204 11.9694786,7.18470211 11.9694786,6.92280216 C11.9694786,6.66090221 11.698429,6.28650229 11.3106775,6.28650229 L11.3106775,6.28650229 Z M11.3106775,2.43269601 L4.53160679,2.43269601 C4.26055719,2.43269601 3.9895076,2.69459596 3.9895076,3.06899588 C3.9895076,3.44339581 4.26055719,3.70439576 4.53160679,3.70439576 L4.53160679,3.70439576 L11.3106775,3.70439576 C11.698429,3.70439576 11.9694786,3.32999583 11.9694786,3.06899588 C11.9694786,2.80709594 11.698429,2.43269601 11.3106775,2.43269601 L11.3106775,2.43269601 Z" id="3" fill="#999999" fill-rule="nonzero"></path>
    </g>
</svg>