<?xml version="1.0" encoding="UTF-8"?>
<svg width="19px" height="18px" viewBox="0 0 19 18" version="1.1" xmlns="http://www.w3.org/2000/svg" xmlns:xlink="http://www.w3.org/1999/xlink">
    <title>形状</title>
    <g id="页面-1" stroke="none" stroke-width="1" fill="none" fill-rule="evenodd">
        <g id="数字证书登录页1.1" transform="translate(-1324.000000, -23.000000)" fill="#FFFFFF" fill-rule="nonzero">
            <g id="编组-68" transform="translate(1300.000000, 0.000000)">
                <g id="编组-5" transform="translate(24.000000, 21.000000)">
                    <g id="编组" transform="translate(0.000000, 2.000000)">
                        <path d="M17.4769311,5.23636918 L17.7603488,5.72727755 C17.9411054,6.0403339 17.8338624,6.44064922 17.520806,6.62138532 C17.4212983,6.67884288 17.3084183,6.70909428 17.1935133,6.70909428 L0.163636123,6.70909428 C0.0732623876,6.70909428 0,6.6358319 0,6.54545816 L0,5.4000053 C0,5.30963157 0.0732623876,5.23636918 0.163636123,5.23636918 L15.7763427,5.23636918 L13.603255,1.472677 C13.5447934,1.37141861 13.5447934,1.24666313 13.603255,1.14540475 L14.2173609,0.0818108616 C14.2465927,0.0311857264 14.3006112,0 14.3590698,0 C14.4175283,0 14.4715468,0.0311857264 14.5007786,0.0818108616 L17.4769106,5.23636918 L17.4769311,5.23636918 Z M0.850294202,12.7636308 L0.566876438,12.2727225 C0.386119886,11.9596661 0.49336291,11.5593508 0.806419267,11.3786147 C0.905933007,11.3211537 1.01882048,11.2909057 1.13373242,11.2909057 L18.1636096,11.2909057 C18.2539833,11.2909057 18.3272457,11.3641681 18.3272457,11.4545418 L18.3272457,12.5999947 C18.3272457,12.6903684 18.2539833,12.7636308 18.1636096,12.7636308 L2.55090306,12.7636308 L4.72399077,16.527323 C4.78245233,16.6285814 4.78245233,16.7533369 4.72399077,16.8545953 L4.10988486,17.9181891 C4.08065299,17.9688143 4.02663456,18 3.96817597,18 C3.90971739,18 3.85569896,17.9688143 3.82646709,17.9181891 L0.850335111,12.7636308 L0.850294202,12.7636308 Z" id="形状"></path>
                    </g>
                </g>
            </g>
        </g>
    </g>
</svg>